Coordinates
version=1
nRows=38
nColumns=12
inDegrees=yes

Units are S.I. units (second, meters, Newtons, ...)
Angles are in degrees

endheader
time	SC_y	SC_z	SC_x	AC_y	AC_z	AC_x	GH_y	GH_z	GH_yy	EL_x	PS_y
       0.0               -47.7          29.03          67.32          38.26          6.443          11.11          16.78          5.331          144.9          126.8          114.2
   0.04433               -47.7          29.03          67.32          38.27           6.44          11.11          16.76           5.34          144.9          126.8          114.2
   0.08865              -47.69          29.03          67.31          38.27          6.436          11.11          16.73          5.348          144.9          126.8          114.2
     0.133              -47.69          29.02          67.31          38.27          6.431          11.11           16.7          5.358          144.9          126.8          114.2
    0.1773              -47.68          29.02          67.31          38.28          6.427          11.11          16.67          5.368          144.9          126.8          114.2
    0.2216              -47.68          29.01          67.31          38.28          6.422          11.11          16.64          5.378          144.9          126.8          114.2
     0.266              -47.67          29.01           67.3          38.28          6.417          11.11           16.6           5.39          144.9          126.8          114.2
    0.3103              -47.67          29.01           67.3          38.29          6.412          11.12          16.56          5.402          144.9          126.8          114.2
    0.3546              -47.66           29.0           67.3          38.29          6.406          11.12          16.52          5.415          144.9          126.8          114.1
    0.3989              -47.65          28.99          67.29           38.3          6.399          11.12          16.48          5.428          144.9          126.7          114.1
    0.4433              -47.64          28.99          67.29          38.31          6.393          11.12          16.43          5.443          144.9          126.7          114.1
    0.4876              -47.64          28.98          67.29          38.31          6.386          11.12          16.38          5.459          144.8          126.7          114.1
    0.5319              -47.63          28.98          67.28          38.32          6.378          11.13          16.33          5.477          144.8          126.7          114.1
    0.5763              -47.62          28.97          67.28          38.33          6.369          11.13          16.27          5.495          144.8          126.7          114.1
    0.6206              -47.61          28.96          67.27          38.33           6.36          11.13           16.2          5.516          144.8          126.6          114.0
    0.6649              -47.59          28.95          67.27          38.34           6.35          11.13          16.13          5.538          144.8          126.6          114.0
    0.7092              -47.58          28.94          67.26          38.35           6.34          11.14          16.06          5.561          144.8          126.6          114.0
    0.7536              -47.57          28.93          67.25          38.36          6.328          11.14          15.98          5.587          144.8          126.6          113.9
    0.7979              -47.55          28.92          67.25          38.37          6.315          11.15          15.89          5.616          144.7          126.5          113.9
    0.8422              -47.54          28.91          67.24          38.38          6.301          11.15          15.79          5.647          144.7          126.5          113.9
    0.8865              -47.52          28.89          67.23           38.4          6.286          11.15          15.68          5.681          144.7          126.5          113.8
    0.9309               -47.5          28.88          67.22          38.41          6.269          11.16          15.56          5.718          144.7          126.4          113.8
    0.9752              -47.48          28.86          67.21          38.43           6.25          11.17          15.43           5.76          144.6          126.4          113.7
      1.02              -47.45          28.84           67.2          38.44          6.229          11.17          15.29          5.805          144.6          126.4          113.7
     1.064              -47.43          28.82          67.18          38.46          6.206          11.18          15.13          5.856          144.6          126.3          113.6
     1.108               -47.4           28.8          67.17          38.48          6.181          11.19          14.95          5.913          144.5          126.2          113.6
     1.153              -47.36          28.77          67.15          38.51          6.152           11.2          14.74          5.977          144.5          126.2          113.5
     1.197              -47.32          28.74          67.13          38.54           6.12          11.21          14.52          6.049          144.4          126.1          113.4
     1.241              -47.28          28.71          67.11          38.57          6.083          11.22          14.26           6.13          144.3          126.0          113.3
     1.285              -47.23          28.68          67.09           38.6          6.042          11.23          13.97          6.222          144.3          125.9          113.2
      1.33              -47.18          28.63          67.06          38.64          5.994          11.24          13.64          6.327          144.2          125.8          113.1
     1.374              -47.11          28.58          67.03          38.69           5.94          11.26          13.26          6.447          144.1          125.7          113.0
     1.418              -47.04          28.53          66.99          38.74          5.877          11.28          12.82          6.587          144.0          125.6          112.8
     1.463              -46.95          28.46          66.95           38.8          5.804           11.3          12.31          6.748          143.9          125.4          112.6
     1.507              -46.86          28.39           66.9          38.88          5.719          11.33          11.71          6.937          143.7          125.2          112.4
     1.551              -46.74           28.3          66.84          38.96          5.619          11.36          11.01           7.16          143.6          125.0          112.1
     1.596               -46.6          28.19          66.78          39.06          5.499           11.4          10.17          7.425          143.4          124.7          111.8
      1.64              -46.43          28.06          66.69          39.18          5.356          11.44          9.165          7.743          143.1          124.4          111.5
